<svg xmlns="http://www.w3.org/2000/svg" viewBox="0 0 221.14 68">
	<defs>
		<style>
		.letters {
			fill: #fff;
		}
      .letters, .rectangles {
        stroke-miterlimit: 10;
		  stroke: #fff;
      }
      .rectangles {
        fill: none;
        stroke-width: 2px;
      }
      .logo-image {
			fill : #fff;
        stroke-width: 0px;
      }
		</style>
	</defs>
	<g>
		<rect class="rectangles" x="1" y="1" width="219.14" height="66"/>
		<g>
			<path class="logo-image" d="m183.8,29.02c-5.5.32-9.38,5.51-10.47,7.14h20.31c.15-.09.32-.16.5-.16.3,0,.63.05.97.16h.96c-4.12-4.97-8.25-7.36-12.27-7.14Z"/>
			<path class="logo-image" d="m212.14,38.16h-14.9c.04.07.07.12.11.2,2.18,4.67.62,16.69-1.51,21.65h17.3v-21.84c-.18,0-.35-.06-.5-.15-.15.09-.31.15-.5.15Zm0,19.84c0,.55-.45,1-1,1s-1-.45-1-1v-2c0-.55.45-1,1-1s1,.45,1,1v2Z"/>
			<path class="logo-image" d="m195.54,39.2c-.14-.3-.28-.52-.42-.69-.7,5.88-7.5,16.72-11.62,21.49h10.12c1.82-3.06,4.08-16.19,1.92-20.8Z"/>
			<circle class="logo-image" cx="205.14" cy="17" r="2"/>
			<path class="logo-image" d="m198.63,36.16h12.42c-4.48-5.17-11.24-9.17-17.42-5.33,1.68,1.4,3.35,3.17,5.01,5.33Z"/>
			<path class="logo-image" d="m171.14,36.16h.02c0-.17.03-.34.12-.5.19-.33,4.82-8.18,12.39-8.64,2.79-.17,5.58.71,8.33,2.58.07-.12.17-.22.29-.3,7.62-4.99,15.79.04,20.85,6.24V8h-42v28.16Zm39-26.16c0-.55.45-1,1-1s1,.45,1,1v2c0,.55-.45,1-1,1s-1-.45-1-1v-2Zm-5,3c2.21,0,4,1.79,4,4s-1.79,4-4,4-4-1.79-4-4,1.79-4,4-4Zm-33-3c0-.55.45-1,1-1s1,.45,1,1v2c0,.55-.45,1-1,1s-1-.45-1-1v-2Z"/>
			<path class="logo-image" d="m171.14,38.16v21.84h9.62c3.69-3.41,11.88-16.35,12.4-21.84h-22.02Zm3,19.84c0,.55-.45,1-1,1s-1-.45-1-1v-2c0-.55.45-1,1-1s1,.45,1,1v2Z"/>
			<path class="logo-image" d="m164.14,1v66h56V1h-56Zm51,60c0,.55-.45,1-1,1h-44c-.55,0-1-.45-1-1V7c0-.55.45-1,1-1h44c.55,0,1,.45,1,1v54Z"/>
		</g>
		<rect class="rectangles" x="1" y="1" width="163.14" height="66"/>
		<path class="letters" d="m23.16,16.58h0c.77,1.23,1.36,2.6,1.79,4.1.42,1.5.63,3.02.63,4.56h0c0,1.58-.21,3.12-.63,4.63-.43,1.5-1.02,2.87-1.79,4.1h0c-.89,1.35-1.9,2.39-3.03,3.12-1.14.73-2.33,1.09-3.56,1.09h-6.52v15.14c0,.57-.19,1.05-.58,1.44-.39.39-.87.58-1.45.58h0c-.53,0-1-.19-1.41-.58-.41-.39-.61-.87-.61-1.44h0V14.44c0-.81.35-1.4,1.04-1.79h0c.27-.23.62-.34,1.04-.34h8.49c1.23,0,2.42.37,3.56,1.12,1.13.75,2.14,1.8,3.03,3.15Zm-3.47,15.19h0c.58-.89,1.02-1.9,1.33-3.03.31-1.13.46-2.3.46-3.5h0c0-1.15-.15-2.3-.46-3.43-.31-1.14-.75-2.15-1.33-3.03h0c-.46-.77-.97-1.36-1.53-1.77-.56-.4-1.09-.6-1.59-.6h-6.52v17.73h6.52c.5,0,1.03-.2,1.59-.61.56-.4,1.07-.99,1.53-1.76Zm22.76,24.26h0c-2.93,0-5.22-.92-6.87-2.77h0c-1.27-1.39-2.08-3.22-2.43-5.49h0c-.11-.69-.17-1.29-.17-1.79,0-.5.02-.85.06-1.04h0v-22.58c0-1.77.28-3.31.83-4.62.56-1.31,1.28-2.4,2.17-3.27.89-.87,1.89-1.5,3-1.9,1.12-.41,2.26-.61,3.41-.61h0c.69,0,1.64.13,2.83.4,1.19.27,2.37.91,3.52,1.91h0c.39.35.77.75,1.16,1.21.39.47.73,1.04,1.04,1.71.31.67.57,1.43.78,2.28.21.85.32,1.81.32,2.89h0v23.94c0,.48-.06,1.05-.18,1.7h0c-.38,2.12-1.21,3.87-2.48,5.26h0c-1.73,1.85-4.06,2.77-6.99,2.77Zm-5.37-11.03v.81c0,.39.04.85.11,1.38.08.54.23,1.12.44,1.74.21.61.55,1.15,1.01,1.61h0c.85.93,2.12,1.39,3.81,1.39h0c1.73,0,3.06-.48,3.99-1.44h0c.42-.47.75-.98.98-1.53.23-.56.4-1.09.49-1.59.09-.5.14-.92.14-1.27v-.58h0v-23.16c0-1.47-.23-2.61-.69-3.44-.46-.83-1-1.45-1.62-1.88-.61-.42-1.24-.69-1.87-.81-.64-.11-1.11-.17-1.42-.17h0c-1.43,0-2.62.44-3.58,1.33h0c-1.19,1.11-1.79,2.77-1.79,4.97h0v22.64Zm32.06,10.57h0c-2.7,0-4.97-.77-6.82-2.31h0c-.73-.61-1.46-1.55-2.17-2.8-.71-1.25-1.06-2.96-1.06-5.11h0c0-.58.2-1.06.6-1.45.41-.39.9-.58,1.48-.58h0c.53,0,.99.19,1.38.58.39.39.58.87.58,1.45h0c0,1.27.18,2.31.55,3.12.37.81.84,1.43,1.41,1.87.58.45,1.23.76,1.94.93.71.17,1.42.26,2.11.26h0c.38,0,.93-.05,1.64-.15.71-.09,1.42-.35,2.11-.78.69-.42,1.3-1.04,1.82-1.85.52-.81.78-1.94.78-3.4h0c0-1.43-.2-2.68-.61-3.76-.4-1.08-.96-2.04-1.67-2.89-.71-.85-1.53-1.63-2.46-2.34-.92-.71-1.9-1.43-2.94-2.16h0c-.93-.65-1.86-1.35-2.8-2.08-.95-.73-1.8-1.54-2.57-2.43h0c-1.81-2.11-2.74-4.56-2.78-7.33h0c0-.15.01-.46.03-.93.02-.46.09-1,.21-1.61h0c.34-1.97,1.11-3.6,2.31-4.91h0c1.73-1.81,4.05-2.72,6.98-2.72h0c2.97,0,5.26.91,6.88,2.72h0c.57.65,1.03,1.4,1.38,2.25.35.85.56,1.77.64,2.77h0c.08.69.11,1.28.09,1.76s-.05.76-.09.84h0c-.11.5-.25.94-.4,1.33h0c-.19.31-.43.58-.7.81-.27.23-.67.3-1.21.23h0c-.54-.08-.93-.28-1.16-.61-.23-.33-.38-.66-.46-1.01h0c-.11-.42-.13-.86-.06-1.33h0c.08-.54.08-1.06,0-1.56h0c-.07-.42-.19-.89-.34-1.41-.15-.52-.4-.99-.75-1.42h0c-.77-.92-2.05-1.38-3.82-1.38h0c-1.77,0-3.09.5-3.98,1.5h0c-.43.42-.74.9-.95,1.44-.21.54-.36,1.02-.44,1.45h0c-.11.53-.15,1.05-.11,1.56h0v.17c0,.96.15,1.83.46,2.6.31.77.74,1.48,1.3,2.14.56.65,1.23,1.3,2.02,1.93.79.63,1.68,1.32,2.69,2.05h0c1.11.73,2.2,1.51,3.26,2.34,1.06.83,2.05,1.8,2.97,2.92h0c2.08,2.54,3.12,5.56,3.12,9.07h0c0,1.77-.3,3.3-.89,4.59-.6,1.29-1.39,2.34-2.37,3.17-.98.83-2.1,1.45-3.35,1.85-1.25.41-2.51.61-3.78.61ZM104.08,12.36h0c.54,0,1.01.2,1.42.61.4.41.6.9.6,1.47h0c0,.54-.2,1.01-.6,1.42-.41.41-.88.61-1.42.61h-6.99v36.85c0,.57-.19,1.05-.57,1.44-.39.39-.87.58-1.45.58h0c-.54,0-1.01-.19-1.41-.58-.41-.39-.61-.87-.61-1.44h0V16.47h-7.1c-.58,0-1.07-.2-1.48-.61-.4-.41-.6-.88-.6-1.42h0c0-.57.2-1.06.6-1.47.41-.41.9-.61,1.48-.61h18.13Zm25.01,38.88h0c.58,0,1.07.2,1.48.6.4.41.6.9.6,1.48h0c0,.54-.2,1.01-.6,1.41-.41.41-.9.61-1.48.61h-15.3c-.58,0-1.07-.2-1.48-.61-.4-.4-.6-.87-.6-1.41h0V14.39c0-.54.2-1.01.6-1.42.41-.41.9-.61,1.48-.61h15.3c.58,0,1.07.2,1.48.61.4.41.6.88.6,1.42h0c0,.57-.2,1.06-.6,1.47-.41.41-.9.61-1.48.61h-13.28v17.73h9.99c.58,0,1.06.2,1.45.6.38.41.57.9.57,1.48h0c0,.54-.19,1.01-.57,1.41-.39.41-.87.61-1.45.61h-9.99v12.94h13.28Zm23.17-14.04l6.7,15.31c.23.54.24,1.07.05,1.59-.19.52-.55.88-1.09,1.07h0c-.15.07-.3.12-.44.14-.13.02-.26.03-.37.03h0c-.43,0-.8-.1-1.13-.29s-.59-.5-.78-.92h0l-6.93-15.89h-6.01v15.08c0,.57-.2,1.05-.6,1.44-.41.39-.9.58-1.48.58h0c-.53,0-1-.19-1.41-.58-.41-.39-.61-.87-.61-1.44h0V14.44c0-.57.2-1.06.61-1.47s.88-.61,1.41-.61h8.61c1.23,0,2.42.38,3.55,1.13,1.14.75,2.15,1.8,3.04,3.15h0c.77,1.23,1.36,2.6,1.79,4.1.42,1.5.63,3.02.63,4.56h0c0,1.58-.21,3.12-.63,4.62-.43,1.51-1.02,2.87-1.79,4.1h0c-.97,1.47-2.01,2.53-3.12,3.18h0Zm-10-20.73v17.73h6.53c.5,0,1.03-.21,1.59-.64.56-.42,1.07-1,1.53-1.73h0c.58-.89,1.03-1.9,1.36-3.03.33-1.14.49-2.31.49-3.5h0c0-1.15-.16-2.3-.49-3.43-.33-1.14-.78-2.15-1.36-3.04h0c-.46-.77-.97-1.35-1.53-1.76-.56-.4-1.09-.6-1.59-.6h-6.53Z"/>
	</g>
</svg>